<svg xmlns="http://www.w3.org/2000/svg" id="noun_Worker_31852" width="89.818" height="90" viewBox="0 0 89.818 90">
    <g id="Group_6" data-name="Group 6">
        <path id="Path_73" fill="#16406d" d="M75.9 51l-3.7 7.2-17.9-7.8-11.6-28.9-8.6-6-21.9.4-5.4 13.6-5.2-2.3-1.6 4 5.2 2.3-1.4 3.6 7.2 2.6 1.4-3.1 5.8 2.6-3 6.8-3.1 20.3L.6 79.1 8 86l13.7-14.8 2.8-14.5 11.9 11.9-.2 20.8 10 .6.3-24.8-13.3-14.7 1.6-4.1 11.1 4.9 1.7 4.2 4.1-1.7L70.3 62l-4 7.8s17.8 5.4 23.5-1.8c.6-8.3-13.9-17-13.9-17zM20 35.3l-5.8-2.5 4.2-9.1 6.7.2zm16.2 7.1l2.9-7.8 4.4 11zm7.9-24.6a8.9 8.9 0 1 0-8.9-8.9 8.92 8.92 0 0 0 8.9 8.9z" data-name="Path 73"/>
    </g>
</svg>
