<svg xmlns="http://www.w3.org/2000/svg" width="94.29" height="94.313" viewBox="0 0 94.29 94.313">
    <g id="noun_items_3354135" transform="translate(-.017)">
        <g id="Group_5" data-name="Group 5" transform="translate(.017)">
            <g id="Group_4" data-name="Group 4">
                <path id="Path_17" fill="#16406d" d="M69.863 320.965a12.483 12.483 0 1 1 12.483-12.483 12.431 12.431 0 0 1-12.483 12.483zm-8.322 47.157h16.644a2.782 2.782 0 0 1 2.774 2.774v16.644a2.782 2.782 0 0 1-2.774 2.774H61.541a2.782 2.782 0 0 1-2.774-2.774V370.9a2.782 2.782 0 0 1 2.774-2.778zm10.68-37.448l11.1 19.417a2.768 2.768 0 0 1-2.358 4.161H58.767a2.768 2.768 0 0 1-2.358-4.161l11.1-19.417a2.732 2.732 0 0 1 4.712 0zM97.6 311.257a2.774 2.774 0 0 1 0-5.548h49.931a2.774 2.774 0 0 1 0 5.548zm0 34.674a2.774 2.774 0 0 1 0-5.548h29.126a2.774 2.774 0 1 1 0 5.548zm0 34.674a2.774 2.774 0 0 1 0-5.548h37.45a2.774 2.774 0 0 1 0 5.548z" data-name="Path 17" transform="translate(-56.017 -296)"/>
            </g>
        </g>
    </g>
</svg>
