<svg xmlns="http://www.w3.org/2000/svg" id="noun_more_343373" width="86.1" height="86.026" viewBox="0 0 86.1 86.026">
    <defs>
        <style>
            .cls-1{fill:#143f6c}
        </style>
    </defs>
    <g id="Group_3" data-name="Group 3">
        <path id="Path_12" d="M43.087 0A43.013 43.013 0 1 0 86.1 43.013 43.107 43.107 0 0 0 43.087 0zm0 80.019a37.006 37.006 0 1 1 37.006-37.006 37.062 37.062 0 0 1-37.006 37.006z" class="cls-1" data-name="Path 12"/>
        <path id="Path_13" d="M69.942 46.475h-16.76V29.641a3.041 3.041 0 0 0-6.081 0V46.4h-16.76a3.041 3.041 0 1 0 0 6.081H47.1v16.76a3.041 3.041 0 0 0 6.081 0V52.482h16.76a3.007 3.007 0 0 0 3.041-3.041 2.946 2.946 0 0 0-3.04-2.966z" class="cls-1" data-name="Path 13" transform="translate(-7.054 -6.873)"/>
    </g>
</svg>
