<svg xmlns="http://www.w3.org/2000/svg" width="86" height="96" viewBox="0 0 86 96">
    <g id="noun_Light_1570743" transform="translate(0 -952.4)">
        <path id="Path_11" fill="#143f6c" d="M43 952.4a2.946 2.946 0 0 0-3 3v8a3 3 0 0 0 6 0v-8a2.946 2.946 0 0 0-3-3zm-28.3 11.7a2.878 2.878 0 0 0-2.1.9 3.018 3.018 0 0 0 0 4.3l5.7 5.7a3.041 3.041 0 0 0 4.3-4.3l-5.7-5.7a3.1 3.1 0 0 0-2.2-.9zm56.6 0a2.878 2.878 0 0 0-2.1.9l-5.7 5.7a3.041 3.041 0 1 0 4.3 4.3l5.7-5.7a3.018 3.018 0 0 0 0-4.3 3.479 3.479 0 0 0-2.2-.9zM43 970.4c-13.7 0-27 10.7-27 25.8 0 9.4 3.7 15.5 7.1 20.3 3.3 4.7 5.9 7.9 5.9 12.9v12a7.086 7.086 0 0 0 7 7h14a7.086 7.086 0 0 0 7-7v-12c0-5 2.6-8.2 5.9-12.9s7.1-10.8 7.1-20.2c0-15.2-13.3-25.9-27-25.9zm0 6c10.6 0 21 8.2 21 19.8 0 7.9-2.8 12.3-5.9 16.8-2.7 3.8-5.9 7.8-6.8 13.4H34.8c-.9-5.5-4.1-9.5-6.8-13.4-3.2-4.5-5.9-8.8-5.9-16.8-.1-11.6 10.3-19.8 20.9-19.8zm-1.3 2A19.924 19.924 0 0 0 24 998.2a19.636 19.636 0 0 0 .9 5.9 3.213 3.213 0 0 0 3.8 2 3.121 3.121 0 0 0 2-3.8 14.047 14.047 0 0 1 11.7-18 3.135 3.135 0 0 0 2.8-3.1c-.4-2.2-1.8-3-3.5-2.8zM3 992.4a3 3 0 0 0 0 6h8a3 3 0 0 0 0-6zm72 0a3 3 0 0 0 0 6h8a3 3 0 0 0 0-6zm-40 40h16v2H35zm0 8h16v1a.942.942 0 0 1-1 1H36a.942.942 0 0 1-1-1z" data-name="Path 11"/>
    </g>
</svg>
