<svg xmlns="http://www.w3.org/2000/svg" width="92.075" height="92" viewBox="0 0 92.075 92">
    <g id="noun_high_quality_2289019" data-name="noun_high quality_2289019" transform="translate(.056 -952.381)">
        <path id="Path_16" fill="#143f6c" d="M45.814 952.4a3.067 3.067 0 0 0-2.133.9l-9.88 9.094-13.809-1.8a3.274 3.274 0 0 0-3.7 2.695l-2.358 12.8L1.8 982.267a3.232 3.232 0 0 0-1.46 4.491l5.95 11.676L.344 1010a3.232 3.232 0 0 0 1.46 4.491l12.125 6.175 2.358 12.8a3.337 3.337 0 0 0 3.7 2.695l13.809-1.8 9.88 9.094a3.322 3.322 0 0 0 4.6 0l9.88-9.094 13.809 1.8a3.274 3.274 0 0 0 3.7-2.695l2.358-12.8 12.125-6.175a3.232 3.232 0 0 0 1.46-4.491l-5.95-11.564 5.95-11.676a3.232 3.232 0 0 0-1.46-4.491l-12.125-6.175-2.358-12.8a3.337 3.337 0 0 0-3.7-2.695l-13.809 1.8-9.88-9.094a2.976 2.976 0 0 0-2.462-.905zm.225 7.859l8.757 8.084a3.446 3.446 0 0 0 2.695.9l12.125-1.684 2.02 11.341a4 4 0 0 0 1.8 2.47l10.554 5.389-5.277 10.217a3.836 3.836 0 0 0 0 3.144l5.277 10.1-10.666 5.389a3.507 3.507 0 0 0-1.8 2.358l-2.024 11.341-12.125-1.684a3.315 3.315 0 0 0-2.695.9l-8.757 8.084-8.757-8.084a3.446 3.446 0 0 0-2.695-.9l-12.125 1.684-2.021-11.339a3.506 3.506 0 0 0-1.8-2.358l-10.666-5.389 5.277-10.1a3.836 3.836 0 0 0 0-3.144l-5.27-10.22 10.554-5.389a3.477 3.477 0 0 0 1.8-2.47l2.021-11.339 12.125 1.684a3.315 3.315 0 0 0 2.695-.9zm0 9.768a28.4 28.4 0 1 0 28.4 28.4 28.51 28.51 0 0 0-28.401-28.398zm0 6.736a21.668 21.668 0 1 1-21.669 21.671 21.61 21.61 0 0 1 21.668-21.669zm0 3.705a3.357 3.357 0 0 0-2.582 1.235l-5.277 6.512-8.2 2.695a3.4 3.4 0 0 0-1.684 5.164l4.828 6.624.225 8.2a3.245 3.245 0 0 0 3.48 3.256 1.91 1.91 0 0 0 .786-.112l8.42-2.358 8.42 2.358a3.4 3.4 0 0 0 4.154-2.358 1.91 1.91 0 0 0 .112-.786l.225-8.2 4.828-6.624a3.316 3.316 0 0 0-.786-4.715 2.256 2.256 0 0 0-.9-.449l-8.2-2.695-5.277-6.512a3.194 3.194 0 0 0-2.573-1.233zm0 8.757l3.256 4.042a3.724 3.724 0 0 0 1.572 1.123l4.715 1.572-2.807 3.817a3.913 3.913 0 0 0-.674 1.909l-.112 4.828-5.165-1.459a4.831 4.831 0 0 0-1.8 0l-5.165 1.459-.112-4.828a3.049 3.049 0 0 0-.674-1.909l-2.807-3.817 4.715-1.572a3.151 3.151 0 0 0 1.572-1.123z" data-name="Path 16"/>
    </g>
</svg>
