<svg xmlns="http://www.w3.org/2000/svg" id="noun_Time_534806" width="86" height="86" viewBox="0 0 86 86">
    <path id="Path_14" fill="#143f6c" d="M43 86a43 43 0 0 1 0-86 3.385 3.385 0 0 1 3.583 3.583A3.385 3.385 0 0 1 43 7.167 35.833 35.833 0 1 0 78.833 43 3.583 3.583 0 1 1 86 43a43.126 43.126 0 0 1-43 43zm0-78.833a3.253 3.253 0 0 1-2.508-1.075 3.253 3.253 0 0 1-1.075-2.508 3.253 3.253 0 0 1 1.075-2.508c1.433-1.433 3.942-1.433 5.017 0a3.253 3.253 0 0 1 1.075 2.508 3.253 3.253 0 0 1-1.075 2.508A3.253 3.253 0 0 1 43 7.167zm32.967 22.216a3.529 3.529 0 1 1 4.658 1.792 2.154 2.154 0 0 1-1.433.358 3.831 3.831 0 0 1-3.225-2.15zm-7.525-11.825a3.547 3.547 0 1 1 5.017 0 3.464 3.464 0 0 1-5.017 0zm-11.825-7.525a3.286 3.286 0 0 1-1.792-4.658c1.075-1.792 2.867-2.867 4.658-1.792a3.286 3.286 0 0 1 1.792 4.658 3.134 3.134 0 0 1-3.225 2.15c-.358-.358-.717-.358-1.433-.358zm25.8 36.55a3.548 3.548 0 0 1-2.508-6.092 3.464 3.464 0 0 1 5.017 0 3.584 3.584 0 0 1-2.508 6.092zM57.333 53.75a2.154 2.154 0 0 1-1.433-.358l-14.333-7.167A3.444 3.444 0 0 1 39.417 43V17.917a3.583 3.583 0 1 1 7.167 0V40.85l12.183 6.092A3.163 3.163 0 0 1 60.2 51.6a2.725 2.725 0 0 1-2.867 2.15z" data-name="Path 14"/>
</svg>
